<svg width="99" height="119" viewBox="0 0 99 119" fill="none" xmlns="http://www.w3.org/2000/svg">
<path d="M35.6611 119H0V0H39.1207C51.6731 0 62.4069 2.36296 71.3221 7.08887C80.2818 11.776 87.1345 18.5163 91.8805 27.3096C96.6708 36.1029 99.0437 46.6781 98.9994 59.0352C98.955 71.7021 96.4268 82.5098 91.4148 91.458C86.4471 100.368 79.2394 107.185 69.7919 111.911C60.3887 116.637 49.0118 119 35.6611 119Z" fill="#2A3D60"/>
<path d="M21.9318 119H0V42.1077H23.6307C31.0443 42.1077 37.3896 43.6345 42.6666 46.6882C47.9436 49.7418 51.9851 54.1221 54.7909 59.8289C57.6225 65.5108 59.0254 72.3314 58.9997 80.291C58.9739 88.4258 57.5066 95.3841 54.5978 101.166C51.689 106.923 47.4803 111.341 41.9716 114.419C36.4629 117.473 29.783 119 21.9318 119Z" fill="#85BAA1"/>
</svg>
