<svg width="101" height="132" viewBox="0 0 101 132" fill="none" xmlns="http://www.w3.org/2000/svg">
<path d="M0.5 131V131.5H1H36.6611C50.0752 131.5 61.539 128.906 71.0317 123.695C80.5686 118.483 87.847 110.961 92.8597 101.14C97.9158 91.2789 100.455 79.3905 100.499 65.4938C100.544 51.9365 98.161 40.3031 93.3283 30.6117C88.5404 20.9208 81.6201 13.4824 72.5715 8.31075C63.5653 3.09567 52.7413 0.5 40.1207 0.5H1H0.5V1V131Z" fill="#DEE6EF" stroke="black"/>
<path d="M0.5 131V131.5H1H22.9318C30.8543 131.5 37.6283 129.816 43.2306 126.424L43.2322 126.423C48.8316 123.004 53.1045 118.099 56.0517 111.727L56.052 111.727C58.9979 105.33 60.4738 97.6536 60.4996 88.7144C60.5256 79.9665 59.1145 72.4407 56.2463 66.1528C53.4042 59.8385 49.3012 54.9743 43.9338 51.5813C38.5629 48.186 32.1209 46.5 24.6307 46.5H1H0.5V47V131Z" fill="#FFFBD3" stroke="black"/>
</svg>
