<svg width="99" height="130" viewBox="0 0 99 130" fill="none" xmlns="http://www.w3.org/2000/svg">
<path d="M35.6611 130H0V0H39.1207C51.6731 0 62.4069 2.58138 71.3221 7.74414C80.2818 12.8646 87.1345 20.2279 91.8805 29.834C96.6708 39.4401 99.0437 50.9928 98.9994 64.4922C98.955 78.3301 96.4268 90.1367 91.4148 99.9121C86.4471 109.645 79.2394 117.093 69.7919 122.256C60.3887 127.419 49.0118 130 35.6611 130Z" fill="#D4E0ED"/>
<path d="M21.9318 130H0V46H23.6307C31.0443 46 37.3896 47.668 42.6666 51.0039C47.9436 54.3398 51.9851 59.125 54.7909 65.3594C57.6225 71.5664 59.0254 79.0176 58.9997 87.7129C58.9739 96.5996 57.5066 104.201 54.5978 110.518C51.689 116.807 47.4803 121.633 41.9716 124.996C36.4629 128.332 29.783 130 21.9318 130Z" fill="#F1EDC5"/>
</svg>
