<svg width="101" height="132" viewBox="0 0 101 132" fill="none" xmlns="http://www.w3.org/2000/svg">
<mask id="path-1-outside-1_121_56" maskUnits="userSpaceOnUse" x="0" y="0" width="101" height="132" fill="black">
<rect fill="white" width="101" height="132"/>
<path d="M36.6611 131H1V1H40.1207C52.6731 1 63.4069 3.58138 72.3221 8.74414C81.2818 13.8646 88.1345 21.2279 92.8805 30.834C97.6708 40.4401 100.044 51.9928 99.9994 65.4922C99.955 79.3301 97.4268 91.1367 92.4148 100.912C87.4471 110.645 80.2394 118.093 70.7919 123.256C61.3887 128.419 50.0118 131 36.6611 131Z"/>
</mask>
<path d="M36.6611 131H1V1H40.1207C52.6731 1 63.4069 3.58138 72.3221 8.74414C81.2818 13.8646 88.1345 21.2279 92.8805 30.834C97.6708 40.4401 100.044 51.9928 99.9994 65.4922C99.955 79.3301 97.4268 91.1367 92.4148 100.912C87.4471 110.645 80.2394 118.093 70.7919 123.256C61.3887 128.419 50.0118 131 36.6611 131Z" fill="#D4E0ED"/>
<path d="M68.796 119.638L69.0374 120.076L69.039 120.075L68.796 119.638ZM88.8886 98.5L88.4418 98.2756L88.4409 98.2773L88.8886 98.5ZM95.7414 65.4922L96.2413 65.4905L96.2413 65.4904L95.7414 65.4922ZM89.0882 32.9922L88.6378 33.2094L88.6387 33.2112L89.0882 32.9922ZM70.1931 12.2988L69.9407 12.7305L69.9424 12.7314L70.1931 12.2988ZM36.6611 127.438C49.3214 127.438 60.1206 124.992 69.0374 120.076L68.5545 119.2C59.8182 124.017 49.1941 126.438 36.6611 126.438V127.438ZM69.039 120.075C77.9553 115.116 84.7235 107.995 89.3362 98.7227L88.4409 98.2773C83.9167 107.371 77.2898 114.342 68.5529 119.201L69.039 120.075ZM89.3354 98.7244C93.9911 89.4561 96.2859 78.3722 96.2413 65.4905L95.2414 65.4939C95.2855 78.2567 93.0118 89.178 88.4418 98.2756L89.3354 98.7244ZM96.2413 65.4904C96.1968 52.7813 93.9692 41.8699 89.5377 32.7732L88.6387 33.2112C92.9893 42.1418 95.1972 52.8971 95.2414 65.4939L96.2413 65.4904ZM89.5385 32.775C85.1506 23.6759 78.7848 16.7009 70.4439 11.8662L69.9424 12.7314C78.1013 17.4606 84.3323 24.2812 88.6378 33.2094L89.5385 32.775ZM70.4455 11.8672C62.1029 6.98882 51.9871 4.5625 40.1207 4.5625V5.5625C51.851 5.5625 61.7834 7.9604 69.9407 12.7305L70.4455 11.8672ZM40.1207 4.5625H5.25804V5.5625H40.1207V4.5625ZM1 131H0V132H1V131ZM1 1V0H0V1H1ZM72.3221 8.74414L71.821 9.60953L71.826 9.61236L72.3221 8.74414ZM92.8805 30.834L91.9839 31.2769L91.9856 31.2803L92.8805 30.834ZM99.9994 65.4922L98.9994 65.4889L98.9994 65.489L99.9994 65.4922ZM92.4148 100.912L91.5249 100.456L91.5241 100.458L92.4148 100.912ZM70.7919 123.256L70.3124 122.378L70.3106 122.379L70.7919 123.256ZM36.6611 130H1V132H36.6611V130ZM2 131V1H0V131H2ZM1 2H40.1207V0H1V2ZM40.1207 2C52.5354 2 63.0881 4.55233 71.821 9.60952L72.8233 7.87877C63.7257 2.61043 52.8107 0 40.1207 0V2ZM71.826 9.61236C80.6059 14.6301 87.3226 21.842 91.9839 31.2769L93.777 30.391C88.9465 20.6137 81.9576 13.0991 72.8183 7.87593L71.826 9.61236ZM91.9856 31.2803C96.6907 40.7155 99.0434 52.1064 98.9994 65.4889L100.999 65.4955C101.044 51.8793 98.6509 40.1647 93.7754 30.3877L91.9856 31.2803ZM98.9994 65.489C98.9554 79.2092 96.4488 90.8524 91.5249 100.456L93.3046 101.368C98.4048 91.4211 100.955 79.4509 100.999 65.4954L98.9994 65.489ZM91.5241 100.458C86.6463 110.014 79.5806 117.314 70.3124 122.378L71.2714 124.133C80.8982 118.873 88.2478 111.276 93.3055 101.367L91.5241 100.458ZM70.3106 122.379C61.0868 127.444 49.8841 130 36.6611 130V132C50.1395 132 61.6907 129.394 71.2732 124.132L70.3106 122.379Z" fill="black" mask="url(#path-1-outside-1_121_56)"/>
<mask id="path-3-outside-2_121_56" maskUnits="userSpaceOnUse" x="0" y="46" width="61" height="86" fill="black">
<rect fill="white" y="46" width="61" height="86"/>
<path d="M22.9318 131H1V47H24.6307C32.0443 47 38.3896 48.668 43.6666 52.0039C48.9436 55.3398 52.9851 60.125 55.7909 66.3594C58.6225 72.5664 60.0254 80.0176 59.9997 88.7129C59.9739 97.5996 58.5066 105.201 55.5978 111.518C52.689 117.807 48.4803 122.633 42.9716 125.996C37.4629 129.332 30.783 131 22.9318 131Z"/>
</mask>
<path d="M22.9318 131H1V47H24.6307C32.0443 47 38.3896 48.668 43.6666 52.0039C48.9436 55.3398 52.9851 60.125 55.7909 66.3594C58.6225 72.5664 60.0254 80.0176 59.9997 88.7129C59.9739 97.5996 58.5066 105.201 55.5978 111.518C52.689 117.807 48.4803 122.633 42.9716 125.996C37.4629 129.332 30.783 131 22.9318 131Z" fill="#EDE7B0"/>
<path d="M40.5776 121.771L40.8398 122.197L40.8416 122.196L40.5776 121.771ZM51.5435 108.852L51.0868 108.648L51.086 108.65L51.5435 108.852ZM55.2503 88.7129L54.7503 88.7129L54.7503 88.7145L55.2503 88.7129ZM51.6594 68.9023L51.2006 69.1012L51.201 69.102L51.6594 68.9023ZM41.1954 56.1875L40.9235 56.6071L40.9246 56.6078L41.1954 56.1875ZM22.7387 126.742C29.8623 126.742 35.9046 125.237 40.8398 122.197L40.3154 121.346C35.5719 124.267 29.7216 125.742 22.7387 125.742V126.742ZM40.8416 122.196C45.773 119.131 49.4925 114.744 52.0011 109.053L51.086 108.65C48.6523 114.17 45.0611 118.396 40.3137 121.347L40.8416 122.196ZM52.0003 109.055C54.5327 103.37 55.7762 96.5835 55.7503 88.7112L54.7503 88.7145C54.7759 96.4829 53.5483 103.122 51.0868 108.648L52.0003 109.055ZM55.7503 88.7129C55.7503 80.9521 54.5458 74.277 52.1178 68.7027L51.201 69.102C53.5609 74.5199 54.7503 81.0518 54.7503 88.7129H55.7503ZM52.1181 68.7035C49.6891 63.0992 46.1401 58.7795 41.4663 55.7672L40.9246 56.6078C45.4148 59.5018 48.8417 63.6587 51.2006 69.1012L52.1181 68.7035ZM41.4674 55.7679C36.814 52.7518 31.1285 51.2578 24.4377 51.2578V52.2578C30.978 52.2578 36.4644 53.7169 40.9235 56.6071L41.4674 55.7679ZM24.4377 51.2578H5.82654V52.2578H24.4377V51.2578ZM1 131H0V132H1V131ZM1 47V46H0V47H1ZM55.7909 66.3594L54.879 66.7698L54.8811 66.7744L55.7909 66.3594ZM59.9997 88.7129L58.9997 88.7099L58.9997 88.71L59.9997 88.7129ZM55.5978 111.518L56.5055 111.937L56.5062 111.936L55.5978 111.518ZM42.9716 125.996L43.4896 126.851L43.4927 126.85L42.9716 125.996ZM22.9318 130H1V132H22.9318V130ZM2 131V47H0V131H2ZM1 48H24.6307V46H1V48ZM24.6307 48C31.8911 48 38.043 49.6319 43.1323 52.8492L44.201 51.1586C38.7362 47.704 32.1976 46 24.6307 46V48ZM43.1323 52.8492C48.2278 56.0704 52.1457 60.6965 54.879 66.7698L56.7028 65.949C53.8245 59.5535 49.6595 54.6093 44.201 51.1586L43.1323 52.8492ZM54.8811 66.7744C57.6388 72.8194 59.0251 80.1206 58.9997 88.7099L60.9996 88.7159C61.0257 79.9145 59.6062 72.3134 56.7007 65.9443L54.8811 66.7744ZM58.9997 88.71C58.9742 97.4917 57.5241 104.944 54.6895 111.099L56.5062 111.936C59.4892 105.458 60.9736 97.7075 60.9996 88.7158L58.9997 88.71ZM54.6902 111.098C51.8581 117.221 47.7777 121.89 42.4505 125.143L43.4927 126.85C49.1829 123.375 53.52 118.392 56.5055 111.937L54.6902 111.098ZM42.4536 125.141C37.1322 128.363 30.6404 130 22.9318 130V132C30.9256 132 37.7937 130.301 43.4896 126.851L42.4536 125.141Z" fill="black" mask="url(#path-3-outside-2_121_56)"/>
</svg>
